<svg width="24" height="24" fill="none" xmlns="http://www.w3.org/2000/svg"><path d="M12.013 9.597a2.4 2.4 0 002.402-2.423A2.407 2.407 0 0012 4.761a2.41 2.41 0 00-2.42 2.442 2.406 2.406 0 002.432 2.394z" fill="#000"/><path d="M22.723 0H1.277C.572 0 0 .571 0 1.277v21.446C0 23.43.572 24 1.277 24h21.446C23.43 24 24 23.429 24 22.723V1.277C24 .57 23.429 0 22.723 0zM12.02 2.238c2.732.007 4.925 2.242 4.912 5.005-.015 2.699-2.244 4.886-4.971 4.877-2.7-.01-4.914-2.248-4.9-4.952a4.95 4.95 0 014.96-4.93zm5.534 11.823c-.604.62-1.331 1.069-2.14 1.383-.763.295-1.6.444-2.428.544.125.136.184.202.262.28 1.124 1.13 2.253 2.256 3.374 3.389.381.386.462.864.252 1.314-.23.491-.745.814-1.25.779-.32-.023-.569-.182-.79-.404-.849-.854-1.713-1.692-2.544-2.561-.242-.253-.358-.206-.572.014-.854.879-1.72 1.744-2.593 2.604-.392.387-.858.456-1.313.236-.483-.234-.79-.727-.766-1.223.016-.335.18-.591.41-.821 1.113-1.11 2.223-2.225 3.333-3.338.074-.073.142-.152.249-.266-1.514-.158-2.879-.53-4.047-1.445-.145-.113-.294-.223-.427-.35-.511-.492-.563-1.053-.158-1.633.346-.496.927-.63 1.531-.345.117.055.229.124.335.198 2.178 1.496 5.17 1.538 7.355.068.216-.165.448-.302.716-.37.523-.134 1.008.057 1.289.514.32.52.316 1.028-.078 1.433z" fill="#000"/></svg>