<svg width="37" height="32" fill="none" xmlns="http://www.w3.org/2000/svg"><path d="M33.458 2.97A9.99 9.99 0 0026.336.024c-2.693 0-5.224 1.05-7.13 2.956l-.995.995-1.011-1.01A10.041 10.041 0 0010.062 0C7.377 0 4.846 1.05 2.948 2.948A9.977 9.977 0 000 10.078c0 2.693 1.057 5.216 2.963 7.122l14.492 14.49c.2.201.47.309.733.309.262 0 .532-.1.733-.3l14.522-14.47a10.016 10.016 0 002.955-7.13 9.97 9.97 0 00-2.94-7.13zm-1.481 12.787l-13.79 13.735L4.43 15.734a7.944 7.944 0 01-2.346-5.656c0-2.138.826-4.144 2.339-5.649a7.933 7.933 0 015.64-2.338c2.138 0 4.152.834 5.664 2.346L17.47 6.18a1.039 1.039 0 001.474 0l1.728-1.729a7.958 7.958 0 015.656-2.345c2.13 0 4.137.833 5.649 2.338a7.937 7.937 0 012.338 5.656 7.905 7.905 0 01-2.338 5.656z" fill="#000F08"/></svg>